# Made in Blockbench 4.8.2
mtllib paperwalldoor_open.mtl

o cube
v -0.375 2 0.0625
v -0.375 2 -0.0625
v -0.375 0 0.0625
v -0.375 0 -0.0625
v -0.5 2 -0.0625
v -0.5 2 0.0625
v -0.5 0 -0.0625
v -0.5 0 0.0625
vt 0.8888888888888888 0.9411764705882353
vt 1 0.9411764705882353
vt 1 0
vt 0.8888888888888888 0
vt 0.8888888888888888 0.9411764705882353
vt 1 0.9411764705882353
vt 1 0
vt 0.8888888888888888 0
vt 0.8888888888888888 0.9411764705882353
vt 1 0.9411764705882353
vt 1 0
vt 0.8888888888888888 0
vt 0.8888888888888888 0.9411764705882353
vt 1 0.9411764705882353
vt 1 0
vt 0.8888888888888888 0
vt 0.8888888888888888 0.9411764705882353
vt 0.7777777777777778 0.9411764705882353
vt 0.7777777777777778 1
vt 0.8888888888888888 1
vt 0.8888888888888888 1
vt 0.7777777777777778 1
vt 0.7777777777777778 0.9411764705882353
vt 0.8888888888888888 0.9411764705882353
vn 0 0 -1
vn 1 0 0
vn 0 0 1
vn -1 0 0
vn 0 1 0
vn 0 -1 0
usemtl m_91be374b-08ec-ab52-3186-633be717b754
f 4/4/1 7/3/1 5/2/1 2/1/1
f 3/8/2 4/7/2 2/6/2 1/5/2
f 8/12/3 3/11/3 1/10/3 6/9/3
f 7/16/4 8/15/4 6/14/4 5/13/4
f 6/20/5 1/19/5 2/18/5 5/17/5
f 7/24/6 4/23/6 3/22/6 8/21/6