# Made in Blockbench 4.8.2
mtllib bench.mtl

o cube
v 1.875 0.5 0.75
v 1.875 0.5 0
v 1.875 0.375 0.75
v 1.875 0.375 0
v 0.125 0.5 0
v 0.125 0.5 0.75
v 0.125 0.375 0
v 0.125 0.375 0.75
vt 0 1
vt 0.875 1
vt 0.875 0.9090909090909091
vt 0 0.9090909090909091
vt 0.5625 0.09090909090909094
vt 0.9375 0.09090909090909094
vt 0.9375 0
vt 0.5625 0
vt 0 1
vt 0.875 1
vt 0.875 0.9090909090909091
vt 0 0.9090909090909091
vt 0.5625 0.09090909090909094
vt 0.9375 0.09090909090909094
vt 0.9375 0
vt 0.5625 0
vt 0 0.9090909090909091
vt 0.875 0.9090909090909091
vt 0.875 0.36363636363636365
vt 0 0.36363636363636365
vt 0 0.9090909090909091
vt 0.875 0.9090909090909091
vt 0.875 0.36363636363636365
vt 0 0.36363636363636365
vn 0 0 -1
vn 1 0 0
vn 0 0 1
vn -1 0 0
vn 0 1 0
vn 0 -1 0
usemtl m_0120a559-5fb4-af76-f7ba-e5586a101293
f 4/4/1 7/3/1 5/2/1 2/1/1
f 3/8/2 4/7/2 2/6/2 1/5/2
f 8/12/3 3/11/3 1/10/3 6/9/3
f 7/16/4 8/15/4 6/14/4 5/13/4
f 6/20/5 1/19/5 2/18/5 5/17/5
f 7/24/6 4/23/6 3/22/6 8/21/6
o cube
v 0.125 0.75 0.1875
v 0.125 0.75 0.0625
v 0.125 0 0.1875
v 0.125 0 0.0625
v 0 0.75 0.0625
v 0 0.75 0.1875
v 0 0 0.0625
v 0 0 0.1875
vt 0.875 1
vt 0.9375 1
vt 0.9375 0.4545454545454546
vt 0.875 0.4545454545454546
vt 0.875 1
vt 0.9375 1
vt 0.9375 0.4545454545454546
vt 0.875 0.4545454545454546
vt 0.875 1
vt 0.9375 1
vt 0.9375 0.4545454545454546
vt 0.875 0.4545454545454546
vt 0.875 1
vt 0.9375 1
vt 0.9375 0.4545454545454546
vt 0.875 0.4545454545454546
vt 0.875 0.4545454545454546
vt 0.9375 0.4545454545454546
vt 0.9375 0.36363636363636365
vt 0.875 0.36363636363636365
vt 0.875 0.4545454545454546
vt 0.9375 0.4545454545454546
vt 0.9375 0.36363636363636365
vt 0.875 0.36363636363636365
vn 0 0 -1
vn 1 0 0
vn 0 0 1
vn -1 0 0
vn 0 1 0
vn 0 -1 0
usemtl m_0120a559-5fb4-af76-f7ba-e5586a101293
f 12/28/7 15/27/7 13/26/7 10/25/7
f 11/32/8 12/31/8 10/30/8 9/29/8
f 16/36/9 11/35/9 9/34/9 14/33/9
f 15/40/10 16/39/10 14/38/10 13/37/10
f 14/44/11 9/43/11 10/42/11 13/41/11
f 15/48/12 12/47/12 11/46/12 16/45/12
o cube
v 0.125 0.75 0.6875
v 0.125 0.75 0.5625
v 0.125 0 0.6875
v 0.125 0 0.5625
v 0 0.75 0.5625
v 0 0.75 0.6875
v 0 0 0.5625
v 0 0 0.6875
vt 0.875 1
vt 0.9375 1
vt 0.9375 0.4545454545454546
vt 0.875 0.4545454545454546
vt 0.875 1
vt 0.9375 1
vt 0.9375 0.4545454545454546
vt 0.875 0.4545454545454546
vt 0.875 0.9090909090909091
vt 0.9375 0.9090909090909091
vt 0.9375 0.36363636363636365
vt 0.875 0.36363636363636365
vt 0.875 1
vt 0.9375 1
vt 0.9375 0.4545454545454546
vt 0.875 0.4545454545454546
vt 0.875 0.4545454545454546
vt 0.9375 0.4545454545454546
vt 0.9375 0.36363636363636365
vt 0.875 0.36363636363636365
vt 0.875 0.4545454545454546
vt 0.9375 0.4545454545454546
vt 0.9375 0.36363636363636365
vt 0.875 0.36363636363636365
vn 0 0 -1
vn 1 0 0
vn 0 0 1
vn -1 0 0
vn 0 1 0
vn 0 -1 0
usemtl m_0120a559-5fb4-af76-f7ba-e5586a101293
f 20/52/13 23/51/13 21/50/13 18/49/13
f 19/56/14 20/55/14 18/54/14 17/53/14
f 24/60/15 19/59/15 17/58/15 22/57/15
f 23/64/16 24/63/16 22/62/16 21/61/16
f 22/68/17 17/67/17 18/66/17 21/65/17
f 23/72/18 20/71/18 19/70/18 24/69/18
o cube
v 2 0.75 0.1875
v 2 0.75 0.0625
v 2 0 0.1875
v 2 0 0.0625
v 1.875 0.75 0.0625
v 1.875 0.75 0.1875
v 1.875 0 0.0625
v 1.875 0 0.1875
vt 0.875 1
vt 0.9375 1
vt 0.9375 0.4545454545454546
vt 0.875 0.4545454545454546
vt 0.875 1
vt 0.9375 1
vt 0.9375 0.4545454545454546
vt 0.875 0.4545454545454546
vt 0.875 1
vt 0.9375 1
vt 0.9375 0.4545454545454546
vt 0.875 0.4545454545454546
vt 0.875 1
vt 0.9375 1
vt 0.9375 0.4545454545454546
vt 0.875 0.4545454545454546
vt 0.875 0.4545454545454546
vt 0.9375 0.4545454545454546
vt 0.9375 0.36363636363636365
vt 0.875 0.36363636363636365
vt 0.875 0.4545454545454546
vt 0.9375 0.4545454545454546
vt 0.9375 0.36363636363636365
vt 0.875 0.36363636363636365
vn 0 0 -1
vn 1 0 0
vn 0 0 1
vn -1 0 0
vn 0 1 0
vn 0 -1 0
usemtl m_0120a559-5fb4-af76-f7ba-e5586a101293
f 28/76/19 31/75/19 29/74/19 26/73/19
f 27/80/20 28/79/20 26/78/20 25/77/20
f 32/84/21 27/83/21 25/82/21 30/81/21
f 31/88/22 32/87/22 30/86/22 29/85/22
f 30/92/23 25/91/23 26/90/23 29/89/23
f 31/96/24 28/95/24 27/94/24 32/93/24
o cube
v 2 0.75 0.6875
v 2 0.75 0.5625
v 2 0 0.6875
v 2 0 0.5625
v 1.875 0.75 0.5625
v 1.875 0.75 0.6875
v 1.875 0 0.5625
v 1.875 0 0.6875
vt 0.875 1
vt 0.9375 1
vt 0.9375 0.4545454545454546
vt 0.875 0.4545454545454546
vt 0.875 1
vt 0.9375 1
vt 0.9375 0.4545454545454546
vt 0.875 0.4545454545454546
vt 0.875 1
vt 0.9375 1
vt 0.9375 0.4545454545454546
vt 0.875 0.4545454545454546
vt 0.875 1
vt 0.9375 1
vt 0.9375 0.4545454545454546
vt 0.875 0.4545454545454546
vt 0.875 0.4545454545454546
vt 0.9375 0.4545454545454546
vt 0.9375 0.36363636363636365
vt 0.875 0.36363636363636365
vt 0.875 0.4545454545454546
vt 0.9375 0.4545454545454546
vt 0.9375 0.36363636363636365
vt 0.875 0.36363636363636365
vn 0 0 -1
vn 1 0 0
vn 0 0 1
vn -1 0 0
vn 0 1 0
vn 0 -1 0
usemtl m_0120a559-5fb4-af76-f7ba-e5586a101293
f 36/100/25 39/99/25 37/98/25 34/97/25
f 35/104/26 36/103/26 34/102/26 33/101/26
f 40/108/27 35/107/27 33/106/27 38/105/27
f 39/112/28 40/111/28 38/110/28 37/109/28
f 38/116/29 33/115/29 34/114/29 37/113/29
f 39/120/30 36/119/30 35/118/30 40/117/30
o cube
v 0.3125 1.3483158550849939 1.2493800882543398
v 0.3125 1.4011431378025814 1.1360916148747584
v 0.3125 0.442008068048344 0.82676182651364
v 0.3125 0.49483535076593144 0.7134733531340589
v 0.1875 1.4011431378025814 1.1360916148747584
v 0.1875 1.3483158550849939 1.2493800882543398
v 0.1875 0.49483535076593144 0.7134733531340589
v 0.1875 0.442008068048344 0.82676182651364
vt 0.9375 0.8181818181818181
vt 1 0.8181818181818181
vt 1 0.09090909090909094
vt 0.9375 0.09090909090909094
vt 0.9375 0.8181818181818181
vt 1 0.8181818181818181
vt 1 0.09090909090909094
vt 0.9375 0.09090909090909094
vt 0.9375 0.8181818181818181
vt 1 0.8181818181818181
vt 1 0.09090909090909094
vt 0.9375 0.09090909090909094
vt 0.9375 0.8181818181818181
vt 1 0.8181818181818181
vt 1 0.09090909090909094
vt 0.9375 0.09090909090909094
vt 0.875 0.18181818181818177
vt 0.9375 0.18181818181818177
vt 0.9375 0.09090909090909094
vt 0.875 0.09090909090909094
vt 0.875 0.18181818181818177
vt 0.9375 0.18181818181818177
vt 0.9375 0.09090909090909094
vt 0.875 0.09090909090909094
vn 0 0.42261826174069944 -0.9063077870366499
vn 1 0 0
vn 0 -0.42261826174069944 0.9063077870366499
vn -1 0 0
vn 0 0.9063077870366499 0.42261826174069944
vn 0 -0.9063077870366499 -0.42261826174069944
usemtl m_0120a559-5fb4-af76-f7ba-e5586a101293
f 44/124/31 47/123/31 45/122/31 42/121/31
f 43/128/32 44/127/32 42/126/32 41/125/32
f 48/132/33 43/131/33 41/130/33 46/129/33
f 47/136/34 48/135/34 46/134/34 45/133/34
f 46/140/35 41/139/35 42/138/35 45/137/35
f 47/144/36 44/143/36 43/142/36 48/141/36
o cube
v 1.8125 1.3483158550849939 1.2493800882543398
v 1.8125 1.4011431378025814 1.1360916148747584
v 1.8125 0.442008068048344 0.82676182651364
v 1.8125 0.49483535076593144 0.7134733531340589
v 1.6875 1.4011431378025814 1.1360916148747584
v 1.6875 1.3483158550849939 1.2493800882543398
v 1.6875 0.49483535076593144 0.7134733531340589
v 1.6875 0.442008068048344 0.82676182651364
vt 0.9375 0.8181818181818181
vt 1 0.8181818181818181
vt 1 0.09090909090909094
vt 0.9375 0.09090909090909094
vt 0.9375 0.8181818181818181
vt 1 0.8181818181818181
vt 1 0.09090909090909094
vt 0.9375 0.09090909090909094
vt 0.9375 0.8181818181818181
vt 1 0.8181818181818181
vt 1 0.09090909090909094
vt 0.9375 0.09090909090909094
vt 0.9375 0.8181818181818181
vt 1 0.8181818181818181
vt 1 0.09090909090909094
vt 0.9375 0.09090909090909094
vt 0.875 0.18181818181818177
vt 0.9375 0.18181818181818177
vt 0.9375 0.09090909090909094
vt 0.875 0.09090909090909094
vt 0.875 0.18181818181818177
vt 0.9375 0.18181818181818177
vt 0.9375 0.09090909090909094
vt 0.875 0.09090909090909094
vn 0 0.42261826174069944 -0.9063077870366499
vn 1 0 0
vn 0 -0.42261826174069944 0.9063077870366499
vn -1 0 0
vn 0 0.9063077870366499 0.42261826174069944
vn 0 -0.9063077870366499 -0.42261826174069944
usemtl m_0120a559-5fb4-af76-f7ba-e5586a101293
f 52/148/37 55/147/37 53/146/37 50/145/37
f 51/152/38 52/151/38 50/150/38 49/149/38
f 56/156/39 51/155/39 49/154/39 54/153/39
f 55/160/40 56/159/40 54/158/40 53/157/40
f 54/164/41 49/163/41 50/162/41 53/161/41
f 55/168/42 52/167/42 51/166/42 56/165/42
o cube
v 1.875 1.0612777176638377 0.9776097667219961
v 1.875 1.114105000381425 0.8643212933424147
v 1.875 0.8347007709046752 0.8719552012868212
v 1.875 0.8875280536222627 0.7586667279072399
v 0.125 1.114105000381425 0.8643212933424147
v 0.125 1.0612777176638377 0.9776097667219961
v 0.125 0.8875280536222627 0.7586667279072399
v 0.125 0.8347007709046752 0.8719552012868212
vt 0 0.36363636363636365
vt 0.875 0.36363636363636365
vt 0.875 0.18181818181818177
vt 0 0.18181818181818177
vt 0.875 0.36363636363636365
vt 0.9375 0.36363636363636365
vt 0.9375 0.18181818181818177
vt 0.875 0.18181818181818177
vt 0 0.36363636363636365
vt 0.875 0.36363636363636365
vt 0.875 0.18181818181818177
vt 0 0.18181818181818177
vt 0.875 0.36363636363636365
vt 0.9375 0.36363636363636365
vt 0.9375 0.18181818181818177
vt 0.875 0.18181818181818177
vt 0 0.18181818181818177
vt 0.875 0.18181818181818177
vt 0.875 0.09090909090909094
vt 0 0.09090909090909094
vt 0 0.18181818181818177
vt 0.875 0.18181818181818177
vt 0.875 0.09090909090909094
vt 0 0.09090909090909094
vn 0 0.42261826174069944 -0.9063077870366499
vn 1 0 0
vn 0 -0.42261826174069944 0.9063077870366499
vn -1 0 0
vn 0 0.9063077870366499 0.42261826174069944
vn 0 -0.9063077870366499 -0.42261826174069944
usemtl m_0120a559-5fb4-af76-f7ba-e5586a101293
f 60/172/43 63/171/43 61/170/43 58/169/43
f 59/176/44 60/175/44 58/174/44 57/173/44
f 64/180/45 59/179/45 57/178/45 62/177/45
f 63/184/46 64/183/46 62/182/46 61/181/46
f 62/188/47 57/187/47 58/186/47 61/185/47
f 63/192/48 60/191/48 59/190/48 64/189/48
o cube
v 1.875 0.7780565342148846 0.8455415599280274
v 1.875 0.8308838169324719 0.7322530865484462
v 1.875 0.5514795874557221 0.7398869944928526
v 1.875 0.6043068701733096 0.6265985211132714
v 0.125 0.8308838169324719 0.7322530865484462
v 0.125 0.7780565342148846 0.8455415599280274
v 0.125 0.6043068701733096 0.6265985211132714
v 0.125 0.5514795874557221 0.7398869944928526
vt 0 0.36363636363636365
vt 0.875 0.36363636363636365
vt 0.875 0.18181818181818177
vt 0 0.18181818181818177
vt 0.875 0.36363636363636365
vt 0.9375 0.36363636363636365
vt 0.9375 0.18181818181818177
vt 0.875 0.18181818181818177
vt 0 0.36363636363636365
vt 0.875 0.36363636363636365
vt 0.875 0.18181818181818177
vt 0 0.18181818181818177
vt 0.875 0.36363636363636365
vt 0.9375 0.36363636363636365
vt 0.9375 0.18181818181818177
vt 0.875 0.18181818181818177
vt 0 0.18181818181818177
vt 0.875 0.18181818181818177
vt 0.875 0.09090909090909094
vt 0 0.09090909090909094
vt 0 0.18181818181818177
vt 0.875 0.18181818181818177
vt 0.875 0.09090909090909094
vt 0 0.09090909090909094
vn 0 0.42261826174069944 -0.9063077870366499
vn 1 0 0
vn 0 -0.42261826174069944 0.9063077870366499
vn -1 0 0
vn 0 0.9063077870366499 0.42261826174069944
vn 0 -0.9063077870366499 -0.42261826174069944
usemtl m_0120a559-5fb4-af76-f7ba-e5586a101293
f 68/196/49 71/195/49 69/194/49 66/193/49
f 67/200/50 68/199/50 66/198/50 65/197/50
f 72/204/51 67/203/51 65/202/51 70/201/51
f 71/208/52 72/207/52 70/206/52 69/205/52
f 70/212/53 65/211/53 66/210/53 69/209/53
f 71/216/54 68/215/54 67/214/54 72/213/54
o cube
v 1.875 1.3444989011127908 1.1096779735159648
v 1.875 1.397326183830378 0.9963895001363834
v 1.875 1.1179219543536283 1.0040234080807897
v 1.875 1.1707492370712158 0.8907349347012086
v 0.125 1.397326183830378 0.9963895001363834
v 0.125 1.3444989011127908 1.1096779735159648
v 0.125 1.1707492370712158 0.8907349347012086
v 0.125 1.1179219543536283 1.0040234080807897
vt 0 0.36363636363636365
vt 0.875 0.36363636363636365
vt 0.875 0.18181818181818177
vt 0 0.18181818181818177
vt 0.875 0.36363636363636365
vt 0.9375 0.36363636363636365
vt 0.9375 0.18181818181818177
vt 0.875 0.18181818181818177
vt 0 0.36363636363636365
vt 0.875 0.36363636363636365
vt 0.875 0.18181818181818177
vt 0 0.18181818181818177
vt 0.875 0.36363636363636365
vt 0.9375 0.36363636363636365
vt 0.9375 0.18181818181818177
vt 0.875 0.18181818181818177
vt 0 0.18181818181818177
vt 0.875 0.18181818181818177
vt 0.875 0.09090909090909094
vt 0 0.09090909090909094
vt 0 0.18181818181818177
vt 0.875 0.18181818181818177
vt 0.875 0.09090909090909094
vt 0 0.09090909090909094
vn 0 0.42261826174069944 -0.9063077870366499
vn 1 0 0
vn 0 -0.42261826174069944 0.9063077870366499
vn -1 0 0
vn 0 0.9063077870366499 0.42261826174069944
vn 0 -0.9063077870366499 -0.42261826174069944
usemtl m_0120a559-5fb4-af76-f7ba-e5586a101293
f 76/220/55 79/219/55 77/218/55 74/217/55
f 75/224/56 76/223/56 74/222/56 73/221/56
f 80/228/57 75/227/57 73/226/57 78/225/57
f 79/232/58 80/231/58 78/230/58 77/229/58
f 78/236/59 73/235/59 74/234/59 77/233/59
f 79/240/60 76/239/60 75/238/60 80/237/60
o cube
v 0.125 0.875 0.875
v 0.125 0.875 -0.125
v 0.125 0.75 0.875
v 0.125 0.75 -0.125
v 0 0.875 -0.125
v 0 0.875 0.875
v 0 0.75 -0.125
v 0 0.75 0.875
vt 0.5 0.09090909090909094
vt 0.5625 0.09090909090909094
vt 0.5625 0
vt 0.5 0
vt 0 0.09090909090909094
vt 0.5 0.09090909090909094
vt 0.5 0
vt 0 0
vt 0.5 0.09090909090909094
vt 0.5625 0.09090909090909094
vt 0.5625 0
vt 0.5 0
vt 0 0.09090909090909094
vt 0.5 0.09090909090909094
vt 0.5 0
vt 0 0
vt 0.5 0.09090909090909094
vt 0.5 0
vt 0 0
vt 0 0.09090909090909094
vt 0.5 0.09090909090909094
vt 0.5 0
vt 0 0
vt 0 0.09090909090909094
vn 0 0 -1
vn 1 0 0
vn 0 0 1
vn -1 0 0
vn 0 1 0
vn 0 -1 0
usemtl m_0120a559-5fb4-af76-f7ba-e5586a101293
f 84/244/61 87/243/61 85/242/61 82/241/61
f 83/248/62 84/247/62 82/246/62 81/245/62
f 88/252/63 83/251/63 81/250/63 86/249/63
f 87/256/64 88/255/64 86/254/64 85/253/64
f 86/260/65 81/259/65 82/258/65 85/257/65
f 87/264/66 84/263/66 83/262/66 88/261/66
o cube
v 2 0.875 0.875
v 2 0.875 -0.125
v 2 0.75 0.875
v 2 0.75 -0.125
v 1.875 0.875 -0.125
v 1.875 0.875 0.875
v 1.875 0.75 -0.125
v 1.875 0.75 0.875
vt 0.5 0.09090909090909094
vt 0.5625 0.09090909090909094
vt 0.5625 0
vt 0.5 0
vt 0 0.09090909090909094
vt 0.5 0.09090909090909094
vt 0.5 0
vt 0 0
vt 0.5 0.09090909090909094
vt 0.5625 0.09090909090909094
vt 0.5625 0
vt 0.5 0
vt 0 0.09090909090909094
vt 0.5 0.09090909090909094
vt 0.5 0
vt 0 0
vt 0.5 0.09090909090909094
vt 0.5 0
vt 0 0
vt 0 0.09090909090909094
vt 0.5 0.09090909090909094
vt 0.5 0
vt 0 0
vt 0 0.09090909090909094
vn 0 0 -1
vn 1 0 0
vn 0 0 1
vn -1 0 0
vn 0 1 0
vn 0 -1 0
usemtl m_0120a559-5fb4-af76-f7ba-e5586a101293
f 92/268/67 95/267/67 93/266/67 90/265/67
f 91/272/68 92/271/68 90/270/68 89/269/68
f 96/276/69 91/275/69 89/274/69 94/273/69
f 95/280/70 96/279/70 94/278/70 93/277/70
f 94/284/71 89/283/71 90/282/71 93/281/71
f 95/288/72 92/287/72 91/286/72 96/285/72